<?xml version="1.0" encoding="UTF-8" standalone="no"?>
<svg
   xmlns:dc="http://purl.org/dc/elements/1.1/"
   xmlns:cc="http://creativecommons.org/ns#"
   xmlns:rdf="http://www.w3.org/1999/02/22-rdf-syntax-ns#"
   xmlns:svg="http://www.w3.org/2000/svg"
   xmlns="http://www.w3.org/2000/svg"
   xmlns:sodipodi="http://sodipodi.sourceforge.net/DTD/sodipodi-0.dtd"
   xmlns:inkscape="http://www.inkscape.org/namespaces/inkscape"
   width="3804"
   height="3804"
   viewBox="0 0 3804 3804"
   version="1.1"
   id="svg130"
   sodipodi:docname="pmpc.svg"
   inkscape:export-filename="/home/max/tmp/pmpc_nav.png"
   inkscape:export-xdpi="5.8895707"
   inkscape:export-ydpi="5.8895707"
   inkscape:version="0.92.1 r">
  <metadata
     id="metadata134">
    <rdf:RDF>
      <cc:Work
         rdf:about="">
        <dc:format>image/svg+xml</dc:format>
        <dc:type
           rdf:resource="http://purl.org/dc/dcmitype/StillImage" />
        <dc:title>Group</dc:title>
      </cc:Work>
    </rdf:RDF>
  </metadata>
  <sodipodi:namedview
     pagecolor="#ffffff"
     bordercolor="#666666"
     borderopacity="1"
     objecttolerance="10"
     gridtolerance="10"
     guidetolerance="10"
     inkscape:pageopacity="0"
     inkscape:pageshadow="2"
     inkscape:window-width="1366"
     inkscape:window-height="702"
     id="namedview132"
     showgrid="false"
     inkscape:zoom="0.072437078"
     inkscape:cx="1902"
     inkscape:cy="1629"
     inkscape:window-x="0"
     inkscape:window-y="21"
     inkscape:window-maximized="1"
     inkscape:current-layer="Group" />
  <!-- Generator: Sketch 44.1 (41455) - http://www.bohemiancoding.com/sketch -->
  <title
     id="title2">Group</title>
  <desc
     id="desc4">Created with Sketch.</desc>
  <defs
     id="defs6" />
  <g
     id="Page-1"
     style="fill:none;fill-rule:evenodd;stroke:none;stroke-width:1"
     transform="translate(0,546)">
    <g
       id="logo">
      <g
         id="id1">
        <g
           id="Group">
          <g
             id="g4683"
             transform="translate(-0.86736396,-274)">
            <g
               transform="translate(1689)"
               id="id4">
              <rect
                 height="501"
                 width="503"
                 y="0"
                 x="0"
                 id="Rectangle-path" />
              <path
                 style="fill:#f9ad0c"
                 inkscape:connector-curvature="0"
                 id="Shape"
                 d="M 251,0 C 112,0 1,112 1,250 1,389 112,500 251,500 389,500 502,389 502,250 502,112 389,0 251,0 Z m 0,54 c 108,0 197,88 197,196 0,109 -89,197 -197,197 C 142,447 54,359 54,250 54,142 142,54 251,54 Z m 0,55 c -79,0 -142,63 -142,141 0,79 63,142 142,142 78,0 141,-63 141,-142 0,-78 -63,-141 -141,-141 z" />
            </g>
            <g
               transform="translate(1471,326)"
               id="id5">
              <rect
                 height="489"
                 width="503"
                 y="0"
                 x="0"
                 id="rect11" />
              <path
                 style="fill:#f9ad0c"
                 inkscape:connector-curvature="0"
                 id="path13"
                 d="M 174,0 C 73,32 1,126 1,238 c 0,139 111,250 251,250 138,0 250,-111 250,-250 0,-3 0,-7 -1,-10 -10,1 -21,2 -31,2 -8,0 -15,-1 -22,-1 0,3 0,6 0,9 0,109 -88,197 -196,197 C 142,435 54,347 54,238 54,150 112,75 192,50 185,34 179,17 174,0 Z m 47,99 c -65,14 -112,71 -112,139 0,79 63,142 143,142 78,0 141,-63 141,-142 0,-6 0,-12 -1,-19 C 322,201 261,157 221,99 Z" />
            </g>
            <g
               transform="translate(1599,899)"
               id="id6">
              <rect
                 height="363"
                 width="501"
                 y="0"
                 x="0"
                 id="rect16" />
              <path
                 style="fill:#f9ad0c"
                 inkscape:connector-curvature="0"
                 id="path18"
                 d="M 250,0 C 112,0 0,113 0,251 0,291 9,329 25,362 L 79,347 C 63,318 54,286 54,251 54,142 142,54 250,54 c 109,0 197,88 197,197 0,35 -9,67 -25,96 l 53,15 C 491,329 500,291 500,251 500,113 389,0 250,0 Z m 0,109 c -78,0 -141,63 -141,142 0,30 9,57 24,80 l 118,-34 117,34 c 15,-23 24,-50 24,-80 0,-79 -63,-142 -142,-142 z" />
            </g>
            <g
               transform="translate(610,2877)"
               id="id7">
              <rect
                 height="79"
                 width="2479"
                 y="0"
                 x="0"
                 id="rect21" />
              <polygon
                 style="fill:#2092c5"
                 points="0,0 0,77 2478,77 2478,0 "
                 id="polygon23" />
            </g>
            <g
               transform="translate(433,3029)"
               id="id8">
              <rect
                 height="78"
                 width="2833"
                 y="0"
                 x="0"
                 id="rect26" />
              <polygon
                 style="fill:#2092c5"
                 points="0,0 0,77 2832,77 2832,0 "
                 id="polygon28" />
            </g>
            <g
               transform="translate(610,1669)"
               id="id9">
              <rect
                 height="78"
                 width="2479"
                 y="0"
                 x="0"
                 id="rect31" />
              <polygon
                 style="fill:#2092c5"
                 points="0,0 0,77 2478,77 2478,0 "
                 id="polygon33" />
            </g>
            <g
               transform="translate(704,1888)"
               id="id10">
              <rect
                 height="353"
                 width="236"
                 y="0"
                 x="0"
                 id="rect36" />
              <path
                 style="fill:#2092c5"
                 inkscape:connector-curvature="0"
                 id="path38"
                 d="M 0,275 H 75 V 94 H 9 V 36 C 29,32 46,26 60,21 74,16 87,9 101,0 h 70 v 275 h 63 v 76 H 0 Z" />
            </g>
            <g
               transform="translate(1118,1888)"
               id="id11">
              <rect
                 height="353"
                 width="236"
                 y="0"
                 x="0"
                 id="rect41" />
              <path
                 style="fill:#2092c5"
                 inkscape:connector-curvature="0"
                 id="path43"
                 d="M 0,275 H 75 V 94 H 9 V 36 C 29,32 46,26 59,21 73,16 87,9 100,0 h 70 v 275 h 64 v 76 H 0 Z" />
            </g>
            <g
               transform="translate(1531,1888)"
               id="id12">
              <rect
                 height="353"
                 width="236"
                 y="0"
                 x="0"
                 id="rect46" />
              <path
                 style="fill:#2092c5"
                 inkscape:connector-curvature="0"
                 id="path48"
                 d="M 0,275 H 76 V 94 H 9 V 36 C 29,32 47,26 61,21 75,16 89,9 102,0 h 69 v 275 h 63 v 76 H 0 Z" />
            </g>
            <g
               transform="translate(1927,1882)"
               id="id13">
              <rect
                 height="366"
                 width="263"
                 y="0"
                 x="0"
                 id="rect51" />
              <path
                 style="fill:#2092c5"
                 inkscape:connector-curvature="0"
                 id="path53"
                 d="M 131,364 C 111,364 93,360 78,352 62,344 48,332 36,317 25,301 16,282 10,259 4,237 0,210 0,181 0,151 4,124 10,101 16,78 25,60 36,45 48,30 62,19 78,11 93,4 111,0 131,0 c 19,0 36,4 52,11 16,8 30,19 42,34 12,15 21,34 27,56 7,23 10,50 10,80 0,29 -3,56 -10,78 -6,23 -15,42 -27,58 -12,15 -26,27 -42,35 -16,8 -33,12 -52,12 z m 0,-73 c 5,0 10,-1 15,-4 5,-3 10,-8 13,-17 4,-8 7,-19 9,-33 2,-15 3,-33 3,-56 0,-24 -1,-42 -3,-57 -2,-14 -5,-25 -9,-33 -3,-7 -8,-12 -13,-15 -5,-2 -10,-3 -15,-3 -6,0 -11,1 -16,3 -5,3 -9,8 -13,15 -4,8 -7,19 -9,33 -2,15 -3,33 -3,57 0,23 1,41 3,56 2,14 5,25 9,33 4,9 8,14 13,17 5,3 10,4 16,4 z" />
            </g>
            <g
               transform="translate(2359,1888)"
               id="id14">
              <rect
                 height="353"
                 width="234"
                 y="0"
                 x="0"
                 id="rect56" />
              <path
                 style="fill:#2092c5"
                 inkscape:connector-curvature="0"
                 id="path58"
                 d="M 0,275 H 75 V 94 H 8 V 36 C 28,32 45,26 59,21 73,16 87,9 100,0 h 71 v 275 h 62 v 76 H 0 Z" />
            </g>
            <g
               transform="translate(2772,1888)"
               id="id15">
              <rect
                 height="353"
                 width="236"
                 y="0"
                 x="0"
                 id="rect61" />
              <path
                 style="fill:#2092c5"
                 inkscape:connector-curvature="0"
                 id="path63"
                 d="M 0,275 H 75 V 94 H 9 V 36 C 29,32 46,26 60,21 74,16 87,9 101,0 h 69 v 275 h 64 v 76 H 0 Z" />
            </g>
            <g
               transform="translate(687,2378)"
               id="id16">
              <rect
                 height="365"
                 width="262"
                 y="0"
                 x="0"
                 id="rect66" />
              <path
                 style="fill:#2092c5"
                 inkscape:connector-curvature="0"
                 id="path68"
                 d="M 130,364 C 110,364 93,359 77,351 61,343 47,332 36,316 24,301 15,282 9,259 3,236 0,210 0,180 0,150 3,124 9,102 15,79 24,60 36,45 47,30 61,19 77,12 93,4 110,0 130,0 c 19,0 37,4 53,12 16,7 30,18 42,33 11,15 20,34 27,57 6,22 9,48 9,78 0,30 -3,56 -9,79 -7,23 -16,42 -27,57 -12,16 -26,27 -42,35 -16,8 -34,13 -53,13 z m 0,-74 c 5,0 10,-1 15,-4 5,-3 10,-8 14,-16 4,-8 7,-20 9,-34 3,-14 4,-33 4,-56 0,-23 -1,-42 -4,-56 -2,-14 -5,-25 -9,-32 -4,-8 -9,-13 -14,-15 -5,-3 -10,-4 -15,-4 -6,0 -11,1 -16,4 -5,2 -9,7 -13,15 -4,7 -6,18 -9,32 -2,14 -3,33 -3,56 0,23 1,42 3,56 3,14 5,26 9,34 4,8 8,13 13,16 5,3 10,4 16,4 z" />
            </g>
            <g
               transform="translate(1118,2385)"
               id="id17">
              <rect
                 height="351"
                 width="236"
                 y="0"
                 x="0"
                 id="rect71" />
              <path
                 style="fill:#2092c5"
                 inkscape:connector-curvature="0"
                 id="path73"
                 d="M 0,274 H 75 V 92 H 9 V 34 C 29,30 46,25 59,20 73,15 87,8 100,0 h 70 v 274 h 64 v 76 H 0 Z" />
            </g>
            <g
               transform="translate(1513,2378)"
               id="id18">
              <rect
                 height="365"
                 width="263"
                 y="0"
                 x="0"
                 id="rect76" />
              <path
                 style="fill:#2092c5"
                 inkscape:connector-curvature="0"
                 id="path78"
                 d="M 132,364 C 112,364 94,359 78,351 62,343 48,332 37,316 25,301 16,282 10,259 4,236 1,210 1,180 1,150 4,124 10,102 16,79 25,60 37,45 48,30 62,19 78,12 94,4 112,0 132,0 c 19,0 37,4 52,12 17,7 30,18 42,33 12,15 21,34 27,57 6,22 9,48 9,78 0,30 -3,56 -9,79 -6,23 -15,42 -27,57 -12,16 -25,27 -42,35 -15,8 -33,13 -52,13 z m 0,-74 c 6,0 11,-1 15,-4 6,-3 10,-8 14,-16 3,-8 6,-20 8,-34 3,-14 4,-33 4,-56 0,-23 -1,-42 -4,-56 -2,-14 -5,-25 -8,-32 -4,-8 -8,-13 -14,-15 -4,-3 -9,-4 -15,-4 -6,0 -11,1 -17,4 -5,2 -9,7 -13,15 -3,7 -6,18 -9,32 -2,14 -3,33 -3,56 0,23 1,42 3,56 3,14 6,26 9,34 4,8 8,13 13,16 6,3 11,4 17,4 z" />
            </g>
            <g
               transform="translate(1945,2385)"
               id="id19">
              <rect
                 height="351"
                 width="236"
                 y="0"
                 x="0"
                 id="rect81" />
              <path
                 style="fill:#2092c5"
                 inkscape:connector-curvature="0"
                 id="path83"
                 d="M 0,274 H 75 V 92 H 9 V 34 C 29,30 46,25 60,20 74,15 88,8 101,0 h 70 v 274 h 63 v 76 H 0 Z" />
            </g>
            <g
               transform="translate(2359,2385)"
               id="id20">
              <rect
                 height="351"
                 width="234"
                 y="0"
                 x="0"
                 id="rect86" />
              <path
                 style="fill:#2092c5"
                 inkscape:connector-curvature="0"
                 id="path88"
                 d="M 0,274 H 75 V 92 H 8 V 34 C 28,30 45,25 59,20 73,15 87,8 100,0 h 71 v 274 h 62 v 76 H 0 Z" />
            </g>
            <g
               transform="translate(2754,2378)"
               id="id21">
              <rect
                 height="365"
                 width="263"
                 y="0"
                 x="0"
                 id="rect91" />
              <path
                 style="fill:#2092c5"
                 inkscape:connector-curvature="0"
                 id="path93"
                 d="M 131,364 C 111,364 94,359 78,351 62,343 48,332 36,316 25,301 16,282 10,259 4,236 1,210 1,180 1,150 4,124 10,102 16,79 25,60 36,45 48,30 62,19 78,12 94,4 111,0 131,0 c 19,0 36,4 53,12 16,7 30,18 41,33 12,15 21,34 28,57 6,22 9,48 9,78 0,30 -3,56 -9,79 -7,23 -16,42 -28,57 -11,16 -25,27 -41,35 -17,8 -34,13 -53,13 z m 0,-74 c 5,0 10,-1 15,-4 5,-3 10,-8 13,-16 4,-8 7,-20 9,-34 2,-14 4,-33 4,-56 0,-23 -2,-42 -4,-56 -2,-14 -5,-25 -9,-32 -3,-8 -8,-13 -13,-15 -5,-3 -10,-4 -15,-4 -6,0 -11,1 -16,4 -5,2 -9,7 -13,15 -4,7 -7,18 -9,32 -2,14 -3,33 -3,56 0,23 1,42 3,56 2,14 5,26 9,34 4,8 8,13 13,16 5,3 10,4 16,4 z" />
            </g>
            <g
               transform="translate(2240,431)"
               id="id22">
              <rect
                 height="2341"
                 width="1409"
                 y="0"
                 x="0"
                 id="rect96" />
              <path
                 inkscape:connector-curvature="0"
                 style="fill:#4cbd38;fill-opacity:0.94117647"
                 id="path98"
                 d="M 79,0 C 38,0 5,34 1,69 c -5,34 18,76 57,87 886,255 1380,1196 1125,2082 h 1 c -7,21 -4,46 7,64 12,18 28,29 46,34 18,5 38,5 57,-4 19,-9 35,-29 41,-51 C 1614,1314 1071,283 102,3 94,1 87,0 79,0 Z" />
            </g>
            <g
               transform="translate(3281,2464)"
               id="id23">
              <rect
                 height="529"
                 width="524"
                 y="0"
                 x="0"
                 id="rect101" />
              <polygon
                 style="fill:#4cbd38;fill-opacity:1"
                 points="0,0 132,528 237,426 523,151 "
                 id="polygon103" />
            </g>
            <g
               transform="translate(0,517)"
               id="id24">
              <rect
                 height="2481"
                 width="1171"
                 y="1"
                 x="1"
                 id="rect106" />
              <path
                 inkscape:connector-curvature="0"
                 style="fill:#4cbd38;fill-opacity:0.86666667"
                 id="path108"
                 d="m 1086,1 c -10,1 -19,4 -28,8 -914,425 -1311,1511 -888,2424 9,20 28,37 49,44 20,6 40,3 57,-5 16,-7 31,-21 40,-41 8,-19 7,-44 -3,-65 l 1,1 C -74,1531 288,541 1125,153 h -1 c 36,-16 53,-59 44,-91 -8,-33 -43,-64 -82,-61 z" />
            </g>
            <g
               transform="translate(833,417)"
               id="id25">
              <rect
                 height="495"
                 width="543"
                 y="0"
                 x="0"
                 id="rect111" />
              <polygon
                 style="fill:#4cbd38;fill-opacity:1"
                 points="0,0 229,494 542,48 394,35 "
                 id="polygon113" />
            </g>
            <g
               transform="translate(257,3181)"
               id="id26">
              <rect
                 height="79"
                 width="3185"
                 y="0"
                 x="0"
                 id="rect116" />
              <polygon
                 style="fill:#2092c5"
                 points="0,0 0,77 3184,77 3184,0 "
                 id="polygon118" />
            </g>
            <g
               transform="translate(599,1158)"
               id="id27">
              <rect
                 height="437"
                 width="2500"
                 y="0"
                 x="0"
                 id="rect121" />
              <path
                 style="fill:#2092c5"
                 inkscape:connector-curvature="0"
                 id="path123"
                 d="M 1239,0 1,362 11,436 H 1250 2489 L 2499,362 1260,0 Z m 11,76 973,285 H 1250 277 Z" />
            </g>
          </g>
        </g>
      </g>
    </g>
  </g>
</svg>
