<?xml version="1.0" encoding="UTF-8" standalone="no"?>
<!-- Created with Inkscape (http://www.inkscape.org/) -->

<svg
   xmlns:dc="http://purl.org/dc/elements/1.1/"
   xmlns:cc="http://creativecommons.org/ns#"
   xmlns:rdf="http://www.w3.org/1999/02/22-rdf-syntax-ns#"
   xmlns:svg="http://www.w3.org/2000/svg"
   xmlns="http://www.w3.org/2000/svg"
   xmlns:sodipodi="http://sodipodi.sourceforge.net/DTD/sodipodi-0.dtd"
   xmlns:inkscape="http://www.inkscape.org/namespaces/inkscape"
   sodipodi:docname="dyne.svg"
   xml:space="preserve"
   height="194.8819"
   width="301.18109"
   inkscape:version="0.47pre4 r22446"
   version="1.1"
   id="svg2"><metadata
     id="metadata8"><rdf:RDF><cc:Work
         rdf:about=""><dc:format>image/svg+xml</dc:format><dc:type
           rdf:resource="http://purl.org/dc/dcmitype/StillImage" /><dc:title></dc:title></cc:Work></rdf:RDF></metadata><defs
     id="defs6"><inkscape:perspective
       sodipodi:type="inkscape:persp3d"
       inkscape:vp_x="0 : 0.5 : 1"
       inkscape:vp_y="0 : 1000 : 0"
       inkscape:vp_z="1 : 0.5 : 1"
       inkscape:persp3d-origin="0.5 : 0.33333333 : 1"
       id="perspective10" /></defs><sodipodi:namedview
     pagecolor="#ffffff"
     bordercolor="#666666"
     borderopacity="1"
     objecttolerance="10"
     gridtolerance="10"
     guidetolerance="10"
     inkscape:pageopacity="1"
     inkscape:pageshadow="2"
     inkscape:window-width="1080"
     inkscape:window-height="910"
     id="namedview4"
     showgrid="false"
     inkscape:zoom="0.67425131"
     inkscape:cx="249.16199"
     inkscape:cy="430.03822"
     inkscape:window-x="275"
     inkscape:window-y="-5"
     inkscape:window-maximized="0"
     inkscape:current-layer="g12" /><g
     id="g12"
     inkscape:groupmode="layer"
     inkscape:label="ink_ext_XXXXXX"
     transform="matrix(1.25,0,0,-1.25,0,194.88189)"><g
       id="g14"
       transform="matrix(0.05,0,0,0.05,3.2035426,23.199769)"><path
         d="m 653.41,2042.07 c -6.246,-18.75 -15.015,-75.45 -19.18,-124.03 l -7.671,-89.51 -120.2,8.83 c -145.769,10.72 -258.617,-48.54 -313.851,-164.83 -48.59,-102.3 -48.832,-145.98 -1.32,-237.84 39.683,-76.72 192.207,-165.2 261.468,-151.68 56.262,10.99 73.617,72.4 20.461,72.4 -23.988,0 -76.722,33.25 -117.64,74.16 -136.782,136.79 -79.282,335.02 97.179,335.02 129.481,0 160.223,-43.47 180.844,-255.73 13.414,-138.11 28.656,-191.81 54.434,-191.81 56.265,0 70.64,681.84 15.347,727.72 -30.691,25.46 -40.664,24.92 -49.871,-2.7"
         style="fill:#000000;fill-opacity:1;fill-rule:nonzero;stroke:none"
         id="path16" /><path
         d="m 2184,1857.56 c -163.67,-73.6 -240.65,-290.12 -149.43,-420.31 56.87,-81.18 169.89,-132.98 290.09,-132.98 132.98,0 156.21,41.12 35.8,63.4 -99.74,18.45 -237.84,125.67 -237.84,184.66 0,52.43 127.88,91.31 255.74,77.78 145.77,-15.44 179.02,-2.81 179.02,67.99 0,136.77 -217.38,229.6 -373.38,159.46 z m 193.7,-80.18 c 47.64,-57.54 10.89,-115.08 -73.5,-115.08 -97.18,0 -169.71,66.84 -127.65,117.64 39.39,47.58 160.92,46.03 201.15,-2.56"
         style="fill:#000000;fill-opacity:1;fill-rule:nonzero;stroke:none"
         id="path18" /><path
         d="m 802.797,1790.17 c 8.523,-42.02 63.578,-173.9 121.695,-291.55 101.078,-204.58 104.188,-217.86 65.215,-278.75 -25.008,-39.07 -76.723,-70.56 -132.984,-80.96 -109.969,-20.34 -120.496,-64.81 -15.344,-64.81 122.043,0 213.941,112.52 361.321,442.43 74.26,166.23 127.92,308.46 119.46,316.66 -34.14,33.15 -88.57,-17.45 -104.04,-96.73 -18.46,-94.62 -110.26,-253.18 -146.58,-253.18 -14.11,0 -54.9,66.49 -90.997,148.33 -98.137,222.49 -211.18,323.33 -177.746,158.56"
         style="fill:#000000;fill-opacity:1;fill-rule:nonzero;stroke:none"
         id="path20" /><path
         d="m 1521.64,1844.05 -127.87,-15.52 -7.98,-204.59 c -9.28,-237.84 5.85,-319.67 59.13,-319.67 29.35,0 38.36,34.52 38.36,147.04 0,81.84 11.91,189.58 26.85,242.96 24.35,86.94 34.97,95.9 113.81,95.9 126.44,0 166.23,-71.61 166.23,-299.22 0,-168.79 4.9,-186.68 51.14,-186.68 47.44,0 51.15,16.62 51.15,228.88 0,217.38 -3.34,231.5 -66.49,280.87 -70.87,55.41 -84.4,56.74 -304.33,30.03"
         style="fill:#000000;fill-opacity:1;fill-rule:nonzero;stroke:none"
         id="path22" /><path
         d="m 3012.59,1802.57 c -122.75,-66.89 -184.45,-254.01 -122.14,-370.44 37.33,-69.74 157.95,-127.86 265.36,-127.86 63.93,0 115.08,22.48 179.01,78.68 114.57,100.72 130.59,159.15 80.11,292.13 -31.07,81.84 -62.03,117.17 -121.02,138.1 -107.41,38.12 -198.16,34.69 -281.32,-10.61 z m 196.92,-37.88 c 80.41,-30.35 148.56,-176.56 125.2,-268.62 -18.17,-71.61 -99.72,-140.66 -166.12,-140.66 -23.84,0 -79.27,29.89 -122.75,66.19 -107.41,89.67 -113.31,234.64 -12.79,314.11 77.41,61.19 86.95,62.75 176.46,28.98"
         style="fill:#000000;fill-opacity:1;fill-rule:nonzero;stroke:none"
         id="path24" /><path
         d="m 3590.56,1818.3 c -5.58,-5.58 -10.23,-125.32 -10.23,-263.41 0,-227.61 4.52,-252.41 44.76,-245.51 35.8,6.14 46.08,38.36 51.38,161.11 9.39,217.38 25.34,266.44 95.67,294.32 35.8,14.2 63.93,35.48 63.93,48.37 0,20.46 -225.47,25.16 -245.51,5.12"
         style="fill:#000000;fill-opacity:1;fill-rule:nonzero;stroke:none"
         id="path26" /><path
         d="m 4047.05,1787.61 c -66.49,-42.97 -82.85,-69.82 -81.83,-134.26 0.69,-43.48 18.35,-103.52 38.36,-130.43 20.96,-28.19 37.08,-75.44 37.08,-108.69 0,-62.02 5.11,-64.12 171.34,-70.05 125.32,-4.48 186.7,-47.87 186.7,-131.98 0,-84.97 -76.73,-115 -276.2,-108.12 -219.36,7.57 -762.1,-77.98 -1235.22,-194.693 -695.6,-171.598 -704.92,-172.223 -1276.13,-85.18 -401.51,61.184 -556,73.809 -792.787,64.797 C 432.195,874.305 358.164,839.953 258.297,629.117 161.383,424.523 91.125,195.574 109.969,145.77 128.957,95.5781 283.871,51.1484 439.871,51.1484 c 156.473,0 567.739,62.1176 854.169,129.0116 122.75,28.672 255.27,46.305 291.53,38.797 259.18,-53.66 1045.97,-124.4179 1406.56,-126.4961 427.09,-2.4648 572.25,16.4491 879.75,114.6441 450.09,143.727 801.34,460.989 747.53,675.192 -13.83,55.039 -120.98,145.773 -205.37,173.903 -13.03,4.34 6.39,37.08 44.75,75.44 38.36,38.36 67.77,82.2 67.77,101.02 0,63.76 -66.49,126.21 -153.44,144.11 -112.53,23.17 -123.29,82.21 -25.57,140.24 59.01,35.04 76.72,64.73 76.72,128.67 0,46.03 17.68,108.21 39.64,139.37 l 39.64,56.26 -186.69,0 c -145.77,0 -204.91,-11.77 -269.81,-53.7 z m 228.89,-41.04 c 62.73,-56.39 58.82,-152.11 -7.67,-187.89 -96.38,-51.85 -233.76,85.71 -192.87,193.12 19.36,50.85 141.72,47.66 200.54,-5.23 z m 145.77,-792.922 c 106,-78.91 101.24,-186.433 -13.92,-314.304 C 4299.54,519.148 4079.16,368.938 3971.61,342.051 l -69.05,-17.262 56.39,94.621 c 76.21,127.871 72.22,177.238 -20.58,255.078 -103.48,86.785 -199.48,109.309 -611.22,143.41 -189.24,15.676 -349.29,32.641 -354.2,37.547 -4.9,4.903 75.45,27.035 177.74,48.953 162.59,34.84 301.77,57.04 647.02,103.182 41.85,5.6 185.41,7.35 315.84,3.87 191.8,-5.13 252.77,-16.571 308.16,-57.802 z M 1429.57,794.246 c 189.25,-27.641 347.85,-55.203 354.2,-61.558 6.3,-6.293 -56.26,-25.407 -138.09,-42.196 -99.42,-20.394 -282.6,-26.199 -546.01,-17.304 -388.717,13.128 -588.193,45.882 -588.193,96.582 0,85.683 421.968,96.933 918.093,24.476 z m 1588.14,-11.687 c 0,-5.645 -83.12,-29.145 -185.41,-52.426 C 2730.52,706.969 2375.8,597.383 2045.9,487.18 1716,376.98 1306.5,255.215 1138.04,217.234 795.344,139.973 382.871,107.484 276.195,149.355 l -69.047,27.106 46.489,161.113 c 59.039,204.59 121.187,352.918 147.871,352.918 11.16,0 84.394,-17.105 161.117,-37.633 190.625,-51 895.085,-51.195 1237.765,-0.339 452.66,67.171 767.84,112.792 846.5,122.523 115.08,14.238 370.82,19.422 370.82,7.516 z m 473.11,-38.864 c 209.71,-30.086 370.82,-75.425 370.82,-104.351 0,-83.551 -805.57,-125.141 -1048.52,-54.129 -150.51,43.988 -99.74,68.211 345.24,164.715 85.3,18.496 171.35,16.882 332.46,-6.235 z M 2800.33,524.176 c 276.2,-45.321 714.06,-49.571 915.55,-8.887 79.27,16.008 152.76,22.602 161.11,14.453 33.55,-32.75 -99.74,-197.347 -209.71,-258.969 -208.08,-116.597 -483.34,-150.277 -961.57,-117.644 -230.17,15.707 -519.93,39.578 -647.02,53.305 -421.97,45.578 -465.58,65.254 -268.52,121.113 49.22,13.953 204.59,65.933 345.24,115.508 381.05,134.304 357.97,131.488 664.92,81.121"
         style="fill:#000000;fill-opacity:1;fill-rule:nonzero;stroke:none"
         id="path28" /><path
         d="m 2667.74,1393.77 c -8.85,-23.02 -3.43,-53.22 12.39,-69.05 39.19,-39.19 112.04,-2.56 101.71,51.15 -11.31,58.82 -93.41,71.7 -114.1,17.9"
         style="fill:#000000;fill-opacity:1;fill-rule:nonzero;stroke:none"
         id="path30" /></g></g></svg>