<?xml version="1.0" encoding="utf-8"?>
<!-- Generator: Adobe Illustrator 17.0.0, SVG Export Plug-In . SVG Version: 6.00 Build 0)  -->
<!DOCTYPE svg PUBLIC "-//W3C//DTD SVG 1.1//EN" "http://www.w3.org/Graphics/SVG/1.1/DTD/svg11.dtd">
<svg xmlns="http://www.w3.org/2000/svg" xmlns:xlink="http://www.w3.org/1999/xlink" version="1.1" id="Layer_1" x="0px" y="0px" width="64px" height="64px" viewBox="0 0 64 64" enable-background="new 0 0 64 64" xml:space="preserve">
<g>
	<circle fill="#58B032" cx="19.244" cy="25.758" r="3.189"/>
	<circle fill="#58B032" cx="32" cy="13.002" r="3.189"/>
	<path fill="#58B032" d="M38.268,23.986c0.151-0.553,0.369-1.077,0.648-1.563l-3.581-3.581c-0.984,0.564-2.121,0.892-3.335,0.892   c-1.214,0-2.35-0.328-3.335-0.892l-3.581,3.581c0.279,0.486,0.496,1.011,0.648,1.563H38.268z"/>
	<path fill="#58B032" d="M42.985,32.246c-2.289-0.626-4.09-2.428-4.716-4.716H25.732c-0.626,2.289-2.428,4.09-4.716,4.716v9.347   c2.289,0.626,4.09,2.428,4.716,4.716h7.189c0.072-1.827-0.12-3.478-0.38-4.626c0,0-3.573,0.287-5.438-2.022   c-1.865-2.31-2.13-7.588-2.13-7.588s5.2,0.655,7.04,2.984c1.182,1.496,1.182,2.908,1.171,3.083c0.023-0.108,0.212-0.927,0.87-1.805   c1.275-1.701,4.608-2.612,4.608-2.612s0.425,3.993-0.774,5.749c-1.198,1.756-3.242,2.212-3.242,2.212   c0.252,1.269,0.413,2.833,0.317,4.624h3.305c0.626-2.289,2.428-4.09,4.716-4.716V32.246z"/>
	<circle fill="#58B032" cx="19.244" cy="48.081" r="3.189"/>
	<path fill="#58B032" d="M32,0C14.327,0,0,14.327,0,32c0,17.673,14.327,32,32,32s32-14.327,32-32C64,14.327,49.673,0,32,0z    M51.489,48.081c0,3.712-3.02,6.733-6.733,6.733c-3.098,0-5.708-2.107-6.488-4.961H25.732c-0.781,2.854-3.39,4.961-6.488,4.961   c-3.712,0-6.733-3.02-6.733-6.733c0-3.098,2.107-5.707,4.961-6.488v-9.347c-2.854-0.781-4.961-3.39-4.961-6.488   c0-3.712,3.02-6.732,6.733-6.732c1.214,0,2.35,0.328,3.335,0.892l3.581-3.581c-0.564-0.984-0.892-2.121-0.892-3.335   c0-3.712,3.02-6.733,6.733-6.733c3.712,0,6.733,3.02,6.733,6.733c0,1.214-0.328,2.35-0.892,3.335l3.581,3.581   c0.984-0.564,2.121-0.892,3.335-0.892c3.712,0,6.733,3.02,6.733,6.732c0,3.098-2.107,5.707-4.961,6.488v9.347   C49.382,42.374,51.489,44.983,51.489,48.081z"/>
	<circle fill="#58B032" cx="44.756" cy="25.758" r="3.189"/>
	<circle fill="#58B032" cx="44.756" cy="48.081" r="3.189"/>
</g>
</svg>
